<svg width="124" height="98" viewBox="0 0 124 98" fill="none" xmlns="http://www.w3.org/2000/svg">
<g clip-path="url(#clip0_0_199)">
<path d="M0.249352 80.5395C1.33182 80.0766 1.79136 78.8481 2.96574 78.5277C4.17076 78.1983 5.50853 78.8481 6.61142 78.136C7.09138 77.8244 7.4488 77.3081 8.03089 77.1212C8.54149 76.9609 9.07251 77.139 9.56268 77.2725C9.98138 77.3882 10.4001 77.495 10.8188 77.6108C12.5037 78.0648 14.1785 78.5099 15.8635 78.9639C17.7731 79.4713 19.6726 79.9876 21.5822 80.495C21.766 80.5484 21.8477 80.2903 21.6639 80.2369C18.1714 79.3021 14.6891 78.3674 11.1966 77.4327C10.3796 77.2191 9.53205 76.8897 8.68446 76.8007C8.09216 76.7384 7.62241 76.9431 7.20372 77.2814C6.62163 77.7532 6.18252 78.1894 5.33492 78.225C4.63029 78.2606 3.93588 78.1004 3.23125 78.1983C1.78115 78.3941 1.33182 79.7739 0.106384 80.2992C-0.0774322 80.3882 0.0757485 80.6196 0.249352 80.5395Z" fill="#E8E8E8"/>
<path d="M18.6003 79.4178C19.3254 79.578 19.8972 78.9459 20.5508 78.759C21.429 78.5008 22.3685 78.6077 23.1651 79.0083C23.3387 79.0973 23.4919 78.8658 23.3183 78.7768C22.6443 78.4296 21.8784 78.2872 21.1023 78.3762C20.7653 78.4118 20.4487 78.4919 20.1423 78.6077C19.7032 78.7768 19.1926 79.2664 18.682 79.1596C18.488 79.1151 18.4063 79.3733 18.6003 79.4178Z" fill="#E8E8E8"/>
<path d="M26.4737 78.7502C25.7895 78.2606 25.1359 77.7353 24.5232 77.1745C24.2373 76.9164 23.9616 76.6404 23.6961 76.3644C23.5429 76.2042 23.3897 76.044 23.2467 75.8837C23.1446 75.768 23.0425 75.6523 22.9506 75.5365C22.7872 75.3941 22.7872 75.2161 22.9608 75.0202C23.0833 75.0647 23.2774 74.9579 23.1752 74.8333C22.5523 74.1033 22.0928 73.3021 21.7966 72.4297C21.7353 72.4832 21.6741 72.5366 21.6128 72.59C21.9498 72.6701 22.1949 72.8214 22.3787 73.0707C22.4808 73.2131 22.7463 73.0885 22.6442 72.9372C21.1226 70.6404 19.8768 68.2191 18.9373 65.6998C18.8556 65.7443 18.7637 65.7889 18.682 65.8334C22.9608 69.501 24.9011 74.6018 28.5059 78.7057C28.6284 78.8392 28.894 78.7057 28.7714 78.5721C25.1564 74.4505 23.1957 69.3319 18.8964 65.6464C18.7943 65.5574 18.5901 65.6464 18.6411 65.78C19.5908 68.3259 20.8367 70.7651 22.3787 73.0796C22.4706 73.0351 22.5523 72.9906 22.6442 72.9461C22.4093 72.6345 22.103 72.4297 21.6945 72.3407C21.5822 72.314 21.4698 72.403 21.5107 72.501C21.817 73.3912 22.2868 74.219 22.9199 74.9668C22.9914 74.9045 23.0629 74.8422 23.1344 74.7799C22.8485 74.6641 22.5319 74.7799 22.4604 75.0736C22.3685 75.492 22.9506 75.9549 23.2161 76.2487C24.125 77.2368 25.1564 78.1359 26.2797 78.9371C26.4124 79.0439 26.6269 78.857 26.4737 78.7502Z" fill="#E8E8E8"/>
<path d="M25.4014 73.1862C23.5224 70.7382 22.0008 68.1121 20.8775 65.3346C20.8469 65.3881 20.806 65.4415 20.7754 65.4949C21.1226 65.4237 21.4187 65.5394 21.6128 65.8065C21.7149 65.9578 21.96 65.8243 21.8783 65.6729C20.2954 62.6907 18.6819 59.5839 18.7943 56.2279C18.7023 56.2546 18.6002 56.2724 18.5083 56.2991C21.2349 61.1952 23.8288 66.1536 26.2796 71.1566C26.3511 71.299 26.6166 71.1922 26.5554 71.0497C26.1469 69.9815 25.7486 68.9044 25.3401 67.8361C25.1461 67.3109 24.9419 66.7946 24.7478 66.2694C24.6151 65.9222 24.3292 65.1655 24.901 64.9786C24.8398 64.9608 24.7887 64.9341 24.7274 64.9163C25.4627 66.1714 26.1877 67.4266 26.923 68.6818C27.0149 68.8331 27.2804 68.6996 27.1885 68.5483C26.392 67.1863 26.0243 65.6818 26.0958 64.1507C25.9937 64.1596 25.8916 64.1774 25.7997 64.1863C27.9238 68.7886 30.3849 73.2752 33.1523 77.6105C33.2442 77.7619 33.5097 77.6283 33.4178 77.477C30.6606 73.1595 28.2097 68.6996 26.0958 64.1151C26.0346 63.9815 25.7997 63.9904 25.7997 64.1507C25.7282 65.7263 26.1163 67.2664 26.9332 68.6818C27.0251 68.6373 27.1068 68.5928 27.1987 68.5483C26.4635 67.2931 25.7384 66.0379 25.0031 64.7827C24.9725 64.7382 24.8908 64.7026 24.8295 64.7204C23.8083 65.0498 24.4619 66.3228 24.6866 66.9192C25.2176 68.3168 25.7384 69.7233 26.2694 71.121C26.3613 71.0853 26.4532 71.0497 26.5452 71.0141C24.0943 66.0112 21.5004 61.0528 18.7738 56.1567C18.7023 56.032 18.4879 56.1033 18.4879 56.2279C18.3654 59.6285 20.0095 62.7887 21.6128 65.8065C21.7047 65.7619 21.7864 65.7174 21.8783 65.6729C21.6128 65.3079 21.1839 65.1477 20.6937 65.2367C20.612 65.2545 20.5609 65.3346 20.5916 65.397C21.7251 68.1922 23.2569 70.845 25.1461 73.3108C25.2482 73.4622 25.5137 73.3287 25.4014 73.1862Z" fill="#E8E8E8"/>
<path d="M5.2226 90.394C8.75594 88.9074 12.4833 87.394 16.5171 87.7501C18.4267 87.9192 20.2751 88.3999 22.1745 88.6136C23.1344 88.7204 24.1046 88.7649 25.0645 88.667C25.9631 88.5691 26.8107 88.2842 27.689 88.1151C28.8225 87.8925 29.8539 88.124 30.9466 88.391C31.8453 88.6047 32.7337 88.7827 33.663 88.5958C33.857 88.5602 33.7753 88.302 33.5813 88.3376C31.7227 88.7204 29.9765 87.5542 28.0975 87.7857C27.1682 87.9014 26.3001 88.2219 25.3811 88.3643C24.4109 88.5068 23.4204 88.489 22.44 88.3821C20.5099 88.1863 18.6309 87.6878 16.6907 87.5008C14.781 87.3139 12.8918 87.5275 11.0639 87.9905C8.98061 88.5246 7.00969 89.3436 5.06942 90.1625C4.8856 90.2338 5.04899 90.4652 5.2226 90.394Z" fill="#E8E8E8"/>
<path d="M25.9529 97.7737C27.1477 97.3286 28.3221 96.8389 29.4557 96.287C30.0479 95.9933 30.63 95.6906 31.2121 95.3701C31.7329 95.0764 32.2537 94.658 32.8256 94.4443C33.469 94.2129 34.4391 94.6491 35.0825 94.8182C35.7667 95.0051 36.4509 95.1832 37.1249 95.3701C38.5239 95.744 39.9229 96.1179 41.3118 96.4918C41.4956 96.5452 41.5773 96.287 41.3935 96.2336C39.9025 95.833 38.4014 95.4324 36.9104 95.0318C36.1956 94.836 35.4807 94.6491 34.7659 94.4532C34.2144 94.3019 33.52 93.9903 32.9379 94.1149C32.3967 94.2307 31.9065 94.6402 31.447 94.9072C30.8547 95.2455 30.242 95.5749 29.6293 95.8864C28.3936 96.5007 27.1171 97.0526 25.7998 97.5333C25.6159 97.6045 25.7793 97.836 25.9529 97.7737Z" fill="#E8E8E8"/>
<path d="M38.6567 98.0496C39.4328 97.7113 40.2089 97.3641 40.985 97.0259C41.6998 96.7054 42.4657 96.2781 43.2827 96.2158C44.1099 96.1446 44.7532 96.6164 45.4681 96.8923C46.0706 97.1238 46.7241 97.2573 47.3777 97.2929C48.9095 97.3641 50.3392 96.6965 51.8608 96.7677C53.076 96.83 54.3014 97.7024 55.4962 97.1505C55.6698 97.0704 55.5167 96.8389 55.3431 96.919C54.5976 97.2662 53.7908 96.9279 53.0556 96.7232C52.4224 96.5452 51.8097 96.465 51.1459 96.5274C49.5733 96.6698 48.1334 97.2484 46.5199 96.919C45.1821 96.652 44.1609 95.6817 42.721 96.0466C42.0573 96.2158 41.4343 96.5363 40.8216 96.8033C40.0455 97.1416 39.2694 97.4888 38.4933 97.827C38.3299 97.8983 38.4831 98.1297 38.6567 98.0496Z" fill="#E8E8E8"/>
<path d="M44.6205 96.1178C43.9873 95.6371 43.4155 95.103 42.9457 94.4888C42.7313 94.2128 42.5372 93.919 42.3534 93.6253C42.2615 93.4739 42.1798 93.3226 42.1083 93.1713C42.047 93.0466 41.9858 92.9309 41.9347 92.8063C41.8428 92.6728 41.8837 92.5481 42.0573 92.4324C42.1492 92.3968 42.2411 92.3612 42.333 92.3256C41.2097 90.8835 40.505 89.2455 40.2702 87.5185C40.1783 87.5541 40.0966 87.5808 40.0047 87.6164C40.1885 87.8212 40.3723 88.0259 40.5663 88.2396C40.6786 88.3642 40.8931 88.204 40.8114 88.0793C39.0345 85.3108 38.0848 82.1951 38.0644 79.026C37.9725 79.0616 37.8908 79.0883 37.7989 79.1239C38.4933 79.6135 39.0243 80.2189 39.3511 80.9399C39.443 80.9043 39.5349 80.8687 39.6268 80.8331C38.8303 79.3643 38.6669 77.7085 39.1366 76.1417C39.0345 76.1417 38.9426 76.1417 38.8405 76.1417C40.9339 81.3672 43.0172 86.5838 45.1106 91.8093C45.1719 91.9695 45.4681 91.8983 45.4068 91.7381C44.355 89.0585 43.8341 86.2455 43.8648 83.4058C43.7729 83.4414 43.6912 83.4681 43.5993 83.5037C44.2222 83.9933 44.6103 84.6075 44.7532 85.3286C44.7839 85.4799 45.0596 85.4443 45.0494 85.293C45.0187 84.75 44.9779 84.1981 44.9473 83.655C44.8656 83.6906 44.7941 83.7351 44.7124 83.7708C45.2536 84.0734 45.3557 84.8746 45.5293 85.3731C45.7132 85.9072 45.897 86.4414 46.091 86.9844C46.4688 88.0882 46.8569 89.1832 47.2347 90.287C48.0006 92.4858 48.7665 94.6935 49.5324 96.8923C49.5937 97.0525 49.8899 96.9902 49.8286 96.8211C49.0014 94.4532 48.1845 92.0763 47.3573 89.7084C46.959 88.5511 46.5505 87.3939 46.1523 86.2366C45.948 85.6402 45.7438 85.0526 45.5395 84.4562C45.4068 84.0912 45.2536 83.7619 44.8758 83.5482C44.7839 83.4948 44.6409 83.566 44.6409 83.6639C44.6715 84.207 44.7124 84.7589 44.743 85.3019C44.8451 85.293 44.9473 85.2752 45.0392 85.2663C44.8962 84.5007 44.4673 83.8331 43.8035 83.3168C43.7014 83.2366 43.5482 83.29 43.538 83.4147C43.5074 86.2722 44.0282 89.112 45.0902 91.8182C45.1923 91.7915 45.2842 91.7737 45.3864 91.747C43.2929 86.5215 41.2097 81.3049 39.1162 76.0794C39.0651 75.9637 38.8609 75.9459 38.8201 76.0794C38.3299 77.7263 38.5137 79.4444 39.3409 80.9755C39.4124 81.1091 39.6881 81.0111 39.6166 80.8687C39.2694 80.1031 38.7281 79.4533 37.9827 78.937C37.8806 78.8658 37.7172 78.9103 37.7172 79.0349C37.7376 82.2485 38.6975 85.4176 40.505 88.2218C40.5867 88.1683 40.6684 88.1149 40.7501 88.0615C40.5663 87.8568 40.3825 87.652 40.1885 87.4384C40.1068 87.3494 39.9127 87.4206 39.923 87.5363C40.1578 89.3167 40.8727 90.9992 42.0266 92.4769C42.1287 92.6015 42.333 92.5214 42.3024 92.3701C42.2513 92.1208 41.9143 92.0318 41.6794 92.1832C41.2505 92.4502 41.6692 93.0823 41.8224 93.3849C42.4045 94.5155 43.2725 95.5036 44.3447 96.3137C44.5592 96.4116 44.7736 96.2247 44.6205 96.1178Z" fill="#E8E8E8"/>
<path d="M33.9387 76.1508C33.806 74.4772 37.2882 75.4386 38.2584 75.5988C39.8515 75.857 41.4343 76.1152 43.0274 76.3733C46.2033 76.8896 49.3894 77.4059 52.5654 77.9223C52.7594 77.9579 52.8411 77.6997 52.6471 77.6641C49.0014 77.0677 45.3659 76.4801 41.7202 75.8837C39.9331 75.5899 38.1461 75.2962 36.359 75.0113C35.7156 74.9045 34.9701 74.7888 34.3676 75.0825C33.9081 75.2962 33.6017 75.6879 33.6426 76.1508C33.6426 76.3199 33.9591 76.3199 33.9387 76.1508Z" fill="#E8E8E8"/>
<path d="M50.4516 77.6286C51.5136 77.7265 52.1672 76.8452 52.9943 76.4179C53.699 76.0618 54.3117 76.3378 55.0367 76.4624C55.8435 76.6048 56.6706 76.6226 57.4876 76.5336C57.6816 76.5158 57.6816 76.2488 57.4876 76.2666C56.5685 76.3645 55.6494 76.3289 54.7508 76.133C54.2096 76.0084 53.7194 75.8571 53.1782 76.044C52.2182 76.3645 51.5647 77.4683 50.4516 77.3615C50.2575 77.3437 50.2575 77.6108 50.4516 77.6286Z" fill="#E8E8E8"/>
<path d="M69.9258 94.7469C72.3767 93.9992 74.848 93.2514 77.3805 92.7173C80.0255 92.1654 82.6908 91.9428 85.4072 92.014C88.0929 92.0852 90.7582 92.3523 93.4338 92.5659C96.1195 92.7885 98.8053 93.0021 101.491 93.2247C104.575 93.474 107.669 93.7232 110.753 93.9814C110.947 93.9992 110.947 93.7321 110.753 93.7143C105.249 93.2692 99.7448 92.8241 94.2303 92.3701C88.9303 91.9428 83.5996 91.3108 78.32 92.2633C75.4198 92.7885 72.6218 93.6431 69.8339 94.4888C69.6603 94.5422 69.742 94.8003 69.9258 94.7469Z" fill="#E8E8E8"/>
<path d="M80.7198 85.9874C82.5477 85.6491 84.2633 84.9814 85.9891 84.3761C87.8375 83.7352 89.7063 83.2901 91.6874 83.1387C93.689 82.9874 95.7008 83.0764 97.6921 83.1832C99.6936 83.2901 101.695 83.4147 103.707 83.5393C106.045 83.6906 108.394 83.8598 110.733 84.0378C110.927 84.0556 110.927 83.7886 110.733 83.7708C106.587 83.4503 102.441 83.1743 98.2844 82.9429C94.3323 82.7203 90.4416 82.6313 86.6734 83.8509C84.6718 84.5007 82.7315 85.3286 80.6279 85.7203C80.4542 85.7648 80.5257 86.023 80.7198 85.9874Z" fill="#E8E8E8"/>
<path d="M104.258 75.7233C105.719 74.753 107.261 73.8005 108.895 73.0705C109.691 72.7145 110.549 72.4296 111.448 72.3673C112.418 72.2961 113.388 72.4652 114.338 72.572C116.268 72.7768 118.208 72.9014 120.148 73.0082C121.435 73.0794 123.069 73.2397 123.978 72.2605C124.1 72.1269 123.886 71.94 123.763 72.0735C122.732 73.1863 120.557 72.7679 119.148 72.6878C117.207 72.572 115.287 72.4118 113.357 72.1981C112.53 72.1091 111.713 72.0379 110.886 72.1714C110.069 72.2961 109.303 72.5809 108.578 72.9192C107.005 73.6492 105.514 74.5572 104.095 75.5008C103.952 75.5987 104.105 75.8302 104.258 75.7233Z" fill="#E8E8E8"/>
<path d="M48.0415 74.2547C49.4916 73.3022 50.9519 72.3585 52.402 71.406C53.7908 70.498 55.0877 69.5455 56.9055 69.4654C58.6211 69.3942 60.3776 69.5633 62.083 69.6879C63.9211 69.8215 65.7491 69.9995 67.5668 70.2221C69.0986 70.409 70.9265 70.9075 72.3767 70.2132C72.5503 70.133 72.3971 69.9016 72.2235 69.9817C71.478 70.3378 70.6508 70.3378 69.8237 70.2488C68.9352 70.1508 68.0468 70.0173 67.1583 69.9105C65.4427 69.7058 63.7169 69.5366 61.9808 69.412C60.2754 69.2874 58.5088 69.1093 56.8034 69.1983C55.2205 69.2785 54.0461 69.9906 52.8105 70.8007C51.1663 71.8689 49.5324 72.9461 47.8883 74.0143C47.7351 74.13 47.8883 74.3615 48.0415 74.2547Z" fill="#E8E8E8"/>
<path d="M105.494 83.664C105.586 83.0764 105.719 82.5067 105.913 81.937C106.005 81.6699 106.097 81.4029 106.219 81.1358C106.291 80.9756 106.485 80.7085 106.75 80.7708C106.883 80.8064 106.944 81.207 106.954 81.2871C106.975 81.4296 107.2 81.4741 107.251 81.3228C107.731 79.9607 108.282 78.4652 109.753 77.6729C109.671 77.6373 109.599 77.5928 109.518 77.5572C109.518 77.7798 109.507 78.0112 109.507 78.2338C109.507 78.3584 109.722 78.4207 109.793 78.305C110.702 76.6581 111.693 74.9311 113.531 73.9341C113.459 73.8807 113.378 73.8362 113.306 73.7828C112.387 75.8569 111.315 77.8777 110.1 79.8361C110.018 79.9608 110.222 80.121 110.345 79.9964C111.029 79.2842 111.723 78.572 112.622 78.0557C112.551 77.9934 112.479 77.9311 112.408 77.8688C111.274 79.9518 110.038 81.9815 108.68 83.9577C108.578 84.1091 108.844 84.2426 108.946 84.0913C110.294 82.115 111.54 80.0854 112.673 78.0023C112.734 77.8955 112.602 77.7353 112.459 77.8154C111.54 78.3495 110.825 79.0705 110.12 79.8005C110.202 79.8539 110.284 79.9073 110.365 79.9607C111.591 77.9845 112.673 75.9459 113.602 73.8451C113.654 73.7383 113.48 73.6403 113.378 73.6938C111.489 74.7175 110.467 76.4712 109.528 78.1625C109.62 78.1893 109.722 78.2071 109.814 78.2338C109.814 78.0112 109.824 77.7798 109.824 77.5572C109.824 77.4593 109.691 77.3881 109.589 77.4415C108.057 78.2694 107.455 79.8183 106.954 81.2515C107.057 81.2604 107.159 81.2782 107.251 81.2871C107.2 80.8331 106.73 80.0587 106.158 80.6373C105.872 80.9311 105.76 81.4118 105.637 81.7768C105.433 82.3643 105.29 82.9696 105.188 83.5839C105.178 83.7619 105.463 83.8331 105.494 83.664Z" fill="#E8E8E8"/>
<path d="M34.143 68.6374C34.9395 68.2635 35.7463 67.8896 36.6245 67.6849C37.5538 67.4712 38.4729 67.5424 39.4022 67.6492C41.2505 67.8629 43.0989 68.0765 44.9371 68.2902C45.1311 68.3169 45.1311 68.0498 44.9371 68.0231C42.9661 67.7917 40.985 67.5424 39.0141 67.3377C38.1052 67.2398 37.2372 67.2398 36.359 67.4623C35.5216 67.676 34.7455 68.0409 33.9796 68.397C33.806 68.4949 33.9694 68.7175 34.143 68.6374Z" fill="#E8E8E8"/>
<path d="M96.2624 8.25506C96.9977 7.71203 98.0291 7.81886 98.8358 8.16604C99.4485 8.42419 99.9489 8.94941 100.664 8.97612C101.328 8.99392 101.879 8.60223 102.441 8.34408C102.819 8.17494 103.207 8.05921 103.635 8.13933C104.095 8.21945 104.493 8.4509 104.912 8.61114C106.291 9.13636 107.21 8.40639 108.374 7.82776C108.701 7.66752 109.048 7.52509 109.426 7.49839C109.906 7.46278 110.335 7.64972 110.763 7.80996C111.437 8.05921 111.948 8.15713 112.632 7.91678C113.337 7.67643 113.909 7.71203 114.613 7.93458C115.063 8.07702 115.492 8.25506 115.961 8.34408C116.666 8.48651 117.422 8.4509 117.953 7.97909C118.096 7.85447 117.871 7.66752 117.738 7.79215C117.054 8.39749 116.012 8.11262 115.226 7.84556C114.43 7.5785 113.613 7.29364 112.765 7.5696C112.234 7.74764 111.877 7.87227 111.305 7.70313C110.917 7.58741 110.559 7.40046 110.161 7.30254C109.558 7.14231 108.997 7.23133 108.445 7.47168C107.812 7.74764 107.261 8.18384 106.597 8.41529C105.719 8.71796 105.035 8.31737 104.238 8.0236C103.656 7.80996 103.104 7.77435 102.522 7.9969C101.818 8.27286 101.134 8.8782 100.306 8.62004C99.8672 8.48651 99.52 8.17494 99.1218 7.97909C98.7848 7.81886 98.4171 7.70313 98.0393 7.64082C97.3142 7.52509 96.6096 7.63192 96.0377 8.05031C95.8948 8.18384 96.1194 8.37078 96.2624 8.25506Z" fill="#E8E8E8"/>
<path d="M99.9387 14.3352C100.133 14.3352 100.133 14.0681 99.9387 14.0681C99.7447 14.0681 99.7447 14.3352 99.9387 14.3352Z" fill="#E8E8E8"/>
<path d="M101.981 15.3054C102.461 14.5488 103.595 14.9137 104.299 15.163C105.004 15.4123 105.637 15.5636 106.383 15.341C106.995 15.1541 107.547 14.798 108.18 14.6734C109.058 14.4953 109.558 15.1452 110.355 15.2965C111.601 15.5369 112.857 14.3262 114.031 14.8336C114.358 14.9761 114.583 15.163 114.971 15.1363C115.328 15.1185 115.655 14.9672 116.002 14.8959C116.972 14.7001 117.983 14.8514 118.851 15.2698C119.025 15.3499 119.178 15.1185 119.005 15.0384C118.453 14.7713 117.861 14.6111 117.238 14.5577C116.921 14.531 116.595 14.5399 116.278 14.5844C115.9 14.6289 115.553 14.7713 115.185 14.8336C114.685 14.9137 114.47 14.7001 114.062 14.5488C113.858 14.4775 113.633 14.4419 113.419 14.4508C112.908 14.4686 112.418 14.6556 111.948 14.8069C111.346 15.0028 110.702 15.1897 110.089 14.9226C109.569 14.7001 109.16 14.3618 108.547 14.3618C107.281 14.3707 106.393 15.4301 105.055 15.1096C104.064 14.8692 102.471 14.0235 101.736 15.163C101.624 15.3232 101.889 15.4568 101.981 15.3054Z" fill="#E8E8E8"/>
<path d="M92.0756 25.9612C92.8006 25.4627 93.6278 25.4894 94.4243 25.8099C94.8634 25.9879 95.3332 26.1571 95.7927 25.9167C96.0582 25.7743 96.2318 25.5517 96.5484 25.4716C96.8854 25.3826 97.2428 25.4449 97.5696 25.5161C98.1517 25.6407 98.7134 25.8633 99.3159 25.8989C100.031 25.9434 100.684 25.6764 101.379 25.614C102.124 25.5517 102.645 25.9434 103.339 26.0324C104.013 26.1126 104.534 25.6407 105.208 25.7298C106.025 25.8366 106.832 26.0769 107.639 26.255C107.833 26.2995 107.914 26.0413 107.72 25.9968C106.873 25.8099 105.995 25.525 105.126 25.4449C104.391 25.3737 103.86 25.8989 103.125 25.7031C102.441 25.525 101.951 25.2669 101.215 25.3559C100.429 25.4538 99.7141 25.7209 98.9074 25.5695C98.2845 25.4538 97.682 25.1957 97.0386 25.16C96.8037 25.1511 96.5586 25.1689 96.334 25.2491C96.048 25.347 95.8949 25.5517 95.6293 25.6853C95.0166 25.9968 94.1895 25.3381 93.5359 25.2936C92.913 25.2491 92.3411 25.436 91.8509 25.7654C91.6977 25.8811 91.9224 26.068 92.0756 25.9612Z" fill="#E8E8E8"/>
<path d="M33.5302 6.53708C33.7242 6.53708 33.7242 6.27002 33.5302 6.27002C33.3361 6.27002 33.3361 6.53708 33.5302 6.53708Z" fill="#E8E8E8"/>
<path d="M34.4288 6.74188C34.6127 5.9496 35.8177 6.45701 36.2568 6.69737C36.7572 6.97333 37.2882 7.22259 37.9009 7.07125C38.5647 6.90211 39.014 6.4036 39.7493 6.36799C40.4437 6.34129 41.1177 6.61725 41.7713 6.79529C42.3329 6.94662 42.9252 7.05345 43.5073 6.92882C44.1915 6.78639 44.7736 6.36799 45.468 6.26117C46.8364 6.05642 48.0721 7.02674 49.4609 6.65286C49.6447 6.59945 49.5732 6.34129 49.3792 6.3947C47.9291 6.79529 46.5505 5.67364 45.0799 6.07423C44.3243 6.27897 43.6911 6.74188 42.864 6.71517C42.0981 6.68846 41.4036 6.36799 40.6786 6.20776C40.1067 6.08313 39.5246 6.04752 38.9732 6.27007C38.6566 6.3947 38.3809 6.59944 38.0643 6.73297C37.5435 6.94662 37.1044 6.822 36.6346 6.59054C36.124 6.33239 35.6849 6.02972 35.062 6.07423C34.6229 6.10093 34.2348 6.29678 34.1531 6.68846C34.1021 6.8398 34.3982 6.91102 34.4288 6.74188Z" fill="#E8E8E8"/>
<path d="M35.3582 58.7206C36.5734 58.2755 37.7989 59.0678 39.0243 59.1212C39.6574 59.1479 40.2702 59.0144 40.8931 58.9075C41.6794 58.774 42.3534 58.7651 43.1091 59.0411C43.5686 59.2102 43.9873 59.317 44.4571 59.1568C44.7226 59.0678 44.9472 58.9164 45.2128 58.8363C45.5089 58.7473 45.8153 58.7295 46.1318 58.7295C47.2245 58.7473 48.3172 59.0767 49.3588 58.6494C49.5324 58.5782 49.3792 58.3467 49.2056 58.4179C48.0925 58.8719 46.8569 58.3734 45.6825 58.4802C45.1208 58.5336 44.7532 58.8185 44.2324 58.952C43.6095 59.1123 42.9968 58.6494 42.384 58.5693C41.0667 58.3912 39.8208 59.0322 38.4933 58.8007C37.4312 58.6138 36.359 58.0708 35.2765 58.4713C35.1029 58.5337 35.1846 58.7918 35.3582 58.7206Z" fill="#E8E8E8"/>
<path d="M13.2799 45.608C14.171 45.608 14.8934 44.9782 14.8934 44.2014C14.8934 43.4246 14.171 42.7949 13.2799 42.7949C12.3888 42.7949 11.6664 43.4246 11.6664 44.2014C11.6664 44.9782 12.3888 45.608 13.2799 45.608Z" fill="#0A3871"/>
<path d="M107.2 35.9404C107.826 35.9404 108.333 35.498 108.333 34.9522C108.333 34.4065 107.826 33.9641 107.2 33.9641C106.574 33.9641 106.066 34.4065 106.066 34.9522C106.066 35.498 106.574 35.9404 107.2 35.9404Z" fill="#0A3871"/>
<path d="M96.9978 1.51632C97.4603 1.51632 97.8352 1.18951 97.8352 0.78636C97.8352 0.383212 97.4603 0.0563965 96.9978 0.0563965C96.5353 0.0563965 96.1604 0.383212 96.1604 0.78636C96.1604 1.18951 96.5353 1.51632 96.9978 1.51632Z" fill="#0A3871"/>
<path d="M60.1121 64.8185C60.6873 64.8185 61.1537 64.4119 61.1537 63.9104C61.1537 63.409 60.6873 63.0024 60.1121 63.0024C59.5368 63.0024 59.0704 63.409 59.0704 63.9104C59.0704 64.4119 59.5368 64.8185 60.1121 64.8185Z" fill="#0A3871"/>
<path d="M12.0952 13.2491C12.7551 13.2491 13.29 12.7828 13.29 12.2075C13.29 11.6323 12.7551 11.166 12.0952 11.166C11.4353 11.166 10.9004 11.6323 10.9004 12.2075C10.9004 12.7828 11.4353 13.2491 12.0952 13.2491Z" fill="#0A3871"/>
<path d="M53.2904 49.792C53.6683 49.792 53.9746 49.525 53.9746 49.1956C53.9746 48.8662 53.6683 48.5991 53.2904 48.5991C52.9125 48.5991 52.6062 48.8662 52.6062 49.1956C52.6062 49.525 52.9125 49.792 53.2904 49.792Z" fill="#0A3871"/>
<path d="M117.871 54.8661C118.446 54.8661 118.913 54.4595 118.913 53.9581C118.913 53.4566 118.446 53.05 117.871 53.05C117.296 53.05 116.829 53.4566 116.829 53.9581C116.829 54.4595 117.296 54.8661 117.871 54.8661Z" fill="#0A3871"/>
<path d="M4.3341 69.8748C4.76273 69.8748 5.11021 69.5719 5.11021 69.1983C5.11021 68.8246 4.76273 68.5217 4.3341 68.5217C3.90546 68.5217 3.55798 68.8246 3.55798 69.1983C3.55798 69.5719 3.90546 69.8748 4.3341 69.8748Z" fill="#0A3871"/>
<path d="M36.073 17.2995C35.1846 18.8752 34.2859 20.4508 33.3975 22.0265C37.0738 26.3261 40.7501 30.6169 44.4264 34.9166C45.3761 33.6614 46.3156 32.3795 47.2653 31.0887C49.5018 28.0264 51.6361 24.9997 53.6785 21.9998C52.984 20.4597 52.2794 18.9108 51.585 17.3707C51.1357 17.166 50.6864 16.9701 50.237 16.7654C45.8867 16.7743 41.5364 16.7832 37.1963 16.7921C36.8083 16.9701 36.4406 17.1393 36.073 17.2995Z" fill="white"/>
<path d="M33.52 22.0977C34.2961 20.6111 35.0926 19.1333 35.9096 17.6645C35.9913 17.5132 35.736 17.3707 35.6441 17.531C34.8271 18.9998 34.0306 20.4775 33.2544 21.9642C33.1727 22.1155 33.4383 22.2579 33.52 22.0977Z" fill="black"/>
<path d="M33.3157 22.2579C36.9103 26.5576 40.5764 30.8039 44.314 35.0145C44.4366 35.148 44.651 34.9611 44.5285 34.8276C40.8113 30.6347 37.1656 26.4063 33.5812 22.1244C33.4689 21.9909 33.2034 22.1244 33.3157 22.2579Z" fill="black"/>
<path d="M35.981 17.5132C36.4099 17.3174 36.8286 17.1126 37.2575 16.9168C37.4311 16.8366 37.2779 16.6052 37.1043 16.6853C36.6754 16.8812 36.2567 17.0859 35.8278 17.2817C35.644 17.3708 35.8074 17.5933 35.981 17.5132Z" fill="black"/>
<path d="M37.5128 16.9345C40.699 16.9345 43.8953 16.9345 47.0815 16.9345C47.2755 16.9345 47.2755 16.6675 47.0815 16.6675C43.8953 16.6675 40.699 16.6675 37.5128 16.6675C37.3188 16.6675 37.3188 16.9345 37.5128 16.9345Z" fill="black"/>
<path d="M53.8214 21.973C53.178 20.4863 52.5142 19.0175 51.83 17.5398C51.7585 17.3795 51.4624 17.4508 51.5339 17.611C52.2181 19.0798 52.8819 20.5576 53.5252 22.0442C53.5967 22.2044 53.8929 22.1332 53.8214 21.973Z" fill="black"/>
<path d="M53.4844 22.1066C50.4923 26.3795 47.4389 30.6258 44.3243 34.8364C44.2119 34.9789 44.4774 35.1124 44.5898 34.97C47.7044 30.7593 50.7578 26.522 53.7499 22.2401C53.852 22.0977 53.5865 21.9552 53.4844 22.1066Z" fill="black"/>
<path d="M51.6463 17.264C51.2888 17.0682 50.9314 16.8634 50.574 16.6676C50.4106 16.5785 50.2574 16.8011 50.4208 16.899C50.7782 17.0949 51.1357 17.2996 51.4931 17.4955C51.6667 17.5934 51.8199 17.3619 51.6463 17.264Z" fill="black"/>
<path d="M50.2268 16.6409C47.5614 16.6409 44.8961 16.6409 42.241 16.6409C42.047 16.6409 42.047 16.9079 42.241 16.9079C44.9063 16.9079 47.5716 16.9079 50.2268 16.9079C50.4208 16.9079 50.4208 16.6409 50.2268 16.6409Z" fill="black"/>
<path d="M33.6425 22.2313C35.4705 21.5459 37.2984 20.8604 39.1263 20.175C39.3102 20.1037 39.1468 19.8812 38.9732 19.9435C37.1452 20.629 35.3173 21.3144 33.4893 21.9999C33.3157 22.0711 33.4689 22.3025 33.6425 22.2313Z" fill="black"/>
<path d="M36.0321 17.4329C37.1554 17.5843 38.2583 17.7979 39.351 18.065C39.545 18.1095 39.6267 17.8513 39.4327 17.8068C38.34 17.5309 37.2371 17.3261 36.1138 17.1748C35.9198 17.1481 35.8279 17.4062 36.0321 17.4329Z" fill="black"/>
<path d="M39.2693 18.0205C39.5144 18.6882 39.7288 19.3558 39.9126 20.0413C39.9535 20.2104 40.2496 20.1392 40.2088 19.9701C40.025 19.2846 39.8105 18.617 39.5654 17.9493C39.5042 17.7891 39.208 17.8514 39.2693 18.0205Z" fill="black"/>
<path d="M39.739 18.0473C42.4758 18.0473 45.2024 18.0473 47.9393 18.0473C48.1333 18.0473 48.1333 17.7803 47.9393 17.7803C45.2024 17.7803 42.4758 17.7803 39.739 17.7803C39.545 17.7803 39.545 18.0473 39.739 18.0473Z" fill="black"/>
<path d="M47.8065 18.1006C47.7044 18.5902 47.6023 19.0887 47.5001 19.5784C47.4695 19.7475 47.7657 19.8187 47.7963 19.6496C47.8984 19.16 48.0005 18.6614 48.1026 18.1718C48.1333 18.0027 47.8371 17.9315 47.8065 18.1006Z" fill="black"/>
<path d="M40.0761 20.0591C42.4657 20.0591 44.8553 20.0591 47.2551 20.0591C47.4491 20.0591 47.4491 19.792 47.2551 19.792C44.8655 19.792 42.4759 19.792 40.0761 19.792C39.882 19.792 39.882 20.0591 40.0761 20.0591Z" fill="black"/>
<path d="M48.2355 18.0474C49.3486 17.8426 50.4515 17.6379 51.5646 17.4332C51.7586 17.3975 51.6769 17.1394 51.4829 17.175C50.3698 17.3797 49.2669 17.5845 48.1538 17.7892C47.9598 17.8248 48.0415 18.083 48.2355 18.0474Z" fill="black"/>
<path d="M47.7248 19.9791C48.7562 20.1215 49.7162 20.6289 50.6557 21.0117C51.6565 21.4212 52.647 21.8307 53.6478 22.2402C53.8214 22.3114 53.9848 22.08 53.801 22.0087C52.7389 21.5725 51.6871 21.1452 50.625 20.7091C49.7264 20.3352 48.7971 19.8634 47.8065 19.7209C47.6125 19.6942 47.5308 19.9524 47.7248 19.9791Z" fill="black"/>
<path d="M40.168 20.4687C41.4956 25.2402 42.8129 30.0206 44.1405 34.792C44.1915 34.9612 44.4775 34.89 44.4366 34.7208C43.1091 29.9493 41.7917 25.169 40.4642 20.3975C40.4131 20.2284 40.1169 20.2996 40.168 20.4687Z" fill="black"/>
<path d="M47.2959 20.7891C46.05 25.3825 45.0186 30.0294 44.2221 34.7029C44.1914 34.8721 44.4876 34.9433 44.5182 34.7741C45.3147 30.1006 46.3462 25.4626 47.592 20.8603C47.6431 20.6912 47.3469 20.62 47.2959 20.7891Z" fill="black"/>
<path d="M47.3981 11.8782C47.8577 10.8545 48.113 9.77733 48.1538 8.67348C48.164 8.50435 47.8577 8.50435 47.8475 8.67348C47.8066 9.75063 47.5513 10.8011 47.102 11.807C47.0305 11.9672 47.3266 12.0295 47.3981 11.8782Z" fill="black"/>
<path d="M49.4915 12.0562C50.4718 11.0859 51.5747 10.2313 52.8104 9.51024C52.9737 9.41232 52.8206 9.18086 52.6572 9.27879C51.4011 10.0088 50.2676 10.8811 49.277 11.8693C49.1442 11.9939 49.3587 12.1808 49.4915 12.0562Z" fill="black"/>
<path d="M51.5033 13.7031C52.7696 13.3737 54.0767 13.2491 55.3941 13.3381C55.5881 13.347 55.5881 13.0799 55.3941 13.071C54.0461 12.982 52.7185 13.1066 51.4216 13.4449C51.2378 13.4983 51.3093 13.7565 51.5033 13.7031Z" fill="black"/>
<path d="M29.9866 7.46279C30.1092 9.22539 28.9756 10.9079 27.1579 11.6734C27.0558 11.7179 27.066 11.8515 27.1579 11.9049C28.8224 12.7773 29.5884 14.3796 30.0275 15.9553C30.0785 16.1244 30.3645 16.0532 30.3236 15.8841C29.8641 14.2372 29.0471 12.5725 27.3111 11.6734C27.3111 11.7536 27.3111 11.8248 27.3111 11.9049C29.2207 11.0948 30.4257 9.30551 30.293 7.46279C30.2828 7.29365 29.9764 7.29365 29.9866 7.46279Z" fill="#E8E8E8"/>
<path d="M30.099 7.46279C29.9662 9.31441 31.1712 11.1037 33.0809 11.9049C33.0809 11.8248 33.0809 11.7536 33.0809 11.6734C31.3346 12.5814 30.5177 14.2461 30.0581 15.9019C30.0071 16.071 30.3032 16.1422 30.3543 15.9731C30.7934 14.3885 31.5593 12.7773 33.2341 11.9049C33.326 11.8604 33.3362 11.7179 33.2341 11.6734C31.4163 10.9079 30.2726 9.22539 30.3951 7.46279C30.4156 7.29365 30.1092 7.29365 30.099 7.46279Z" fill="#E8E8E8"/>
<path d="M79.8212 74.2899C80.1786 74.1564 80.6688 73.9605 81.2304 73.6846C82.1699 73.2306 82.6397 72.9991 82.9256 72.6341C83.2932 72.1534 83.1503 71.8953 83.6302 71.4145C83.7017 71.3344 84.0387 71.0229 84.4778 70.8537C85.2335 70.5778 85.9381 70.9071 87.1125 71.2721C88.195 71.6104 89.0426 71.7706 90.7378 72.1C91.4118 72.2335 92.2287 72.3671 93.4133 72.6875C93.7503 72.7766 94.0158 72.8567 94.1996 72.9101C94.2201 73.097 94.2303 73.5777 93.8729 74.0139C93.7095 74.2098 93.4848 74.37 93.1274 74.5124C92.3002 74.8507 91.5139 74.7884 90.8501 74.7617C89.4204 74.7083 90.0127 74.8863 86.6428 74.9397C85.9075 74.9486 85.305 74.9486 84.8863 74.9486C84.3655 75.2602 83.8447 75.5807 83.3137 75.9101C82.415 76.4798 81.5572 77.0495 80.7402 77.6103C80.4339 76.5065 80.1275 75.3937 79.8212 74.2899Z" fill="black"/>
<path d="M75.5627 62.8954C74.8274 63.2337 74.7457 63.3583 72.0089 65.388C67.7403 68.5482 67.2706 68.7173 63.4002 71.6639C59.6933 74.4769 58.9988 75.1802 58.2942 76.106C56.5378 78.4472 56.1497 80.4056 56.0374 81.3581C55.8842 82.64 55.6799 84.4204 56.9769 85.8269C57.7938 86.7082 58.8559 87.0732 59.2133 87.189C60.2856 87.545 61.1638 87.5005 62.7466 87.4026C64.8503 87.2691 66.4536 86.913 67.0867 86.7617C67.7812 86.5925 69.3947 86.1741 71.4166 85.3017C73.3161 84.4827 74.133 83.8774 76.7269 82.3552C77.8808 81.6786 79.5862 80.6905 81.7307 79.551C81.8635 78.6608 81.7512 77.9665 81.6388 77.5303C81.3733 76.4977 80.8321 75.7855 80.2296 75.0021C79.7394 74.3612 79.2697 73.8716 78.9429 73.5511C79.7088 73.0437 80.7096 72.3137 81.7614 71.3345C82.466 70.6758 83.5791 69.6253 84.5084 68.1476C85.6521 66.3316 86.7959 64.4978 86.0606 63.2337C84.9067 61.2485 79.4126 61.1595 75.5627 62.8954Z" fill="white"/>
<path opacity="0.18" d="M84.7127 63.8657C84.1306 65.0408 83.1707 66.7055 81.6389 68.4859C79.4127 71.0585 77.1661 72.4829 73.7757 74.5926C64.1866 80.557 61.6132 81.919 61.8991 82.4887C62.2872 83.2632 67.6893 81.8745 68.4757 81.6697C74.2148 80.192 78.4425 77.9131 81.0875 76.2484C80.4135 75.3493 79.7395 74.4502 79.0655 73.56C79.8927 73.0437 81.0364 72.2247 82.1087 71.0051C82.701 70.3375 83.5996 69.3048 84.1817 67.747C84.774 66.198 84.7944 64.8182 84.7127 63.8657Z" fill="#9B9797"/>
<path d="M75.5219 62.8864C71.8864 65.2454 68.3429 67.7202 64.9321 70.3107C63.2982 71.5481 61.6642 72.7854 60.1324 74.1118C58.7742 75.2869 57.508 76.5866 56.7421 78.1355C55.9455 79.7379 55.7209 81.5895 55.9149 83.3254C56.0783 84.7586 56.6808 86.2007 58.1819 86.9485C59.7546 87.723 61.7357 87.6429 63.4718 87.4826C65.6061 87.2957 67.7097 86.8417 69.7011 86.1384C74.1433 84.5628 77.6256 81.6162 81.8227 79.6667C81.9963 79.5866 81.8431 79.3551 81.6695 79.4352C78.1668 81.0643 75.1849 83.4144 71.672 85.0435C69.8338 85.8981 67.8527 86.5212 65.8103 86.904C63.9211 87.2512 61.797 87.5182 59.8771 87.1978C58.9785 87.0464 58.1105 86.726 57.4671 86.1384C56.8442 85.5598 56.5072 84.8031 56.3336 84.0286C55.9557 82.3462 56.1293 80.4411 56.7625 78.821C57.3956 77.2008 58.6313 75.8388 59.9793 74.6281C61.3783 73.373 62.9101 72.2157 64.4113 71.0673C68.0365 68.2899 71.7945 65.6371 75.6751 63.1268C75.8283 63.0199 75.6853 62.7885 75.5219 62.8864Z" fill="black"/>
<path d="M65.5142 81.1357C68.8637 80.0052 71.8967 78.3138 74.7764 76.4622C76.1959 75.5542 77.5949 74.6106 78.9838 73.667C80.3522 72.7322 81.6593 71.7441 82.7214 70.5424C82.8439 70.4088 82.5784 70.2753 82.4559 70.4088C81.3734 71.6373 80.0152 72.6254 78.6264 73.5779C77.258 74.5126 75.8793 75.4385 74.4701 76.3376C71.6516 78.1358 68.7003 79.7915 65.4325 80.8865C65.2487 80.9399 65.3303 81.198 65.5142 81.1357Z" fill="black"/>
<path d="M78.8306 73.6401C80.8015 75.0822 81.8431 77.3166 81.5674 79.551C81.547 79.7202 81.8533 79.7202 81.8738 79.551C82.1495 77.2543 81.067 74.9398 79.045 73.4532C78.9021 73.3374 78.6876 73.5244 78.8306 73.6401Z" fill="black"/>
<path d="M81.547 77.0674C82.1291 76.916 82.6397 76.4888 83.1299 76.1861C83.7426 75.8122 84.3451 75.4383 84.9578 75.0644C85.1212 74.9665 84.968 74.7351 84.8046 74.833C84.2532 75.1713 83.6915 75.5184 83.1401 75.8567C82.6295 76.1683 82.0678 76.649 81.4653 76.8092C81.2713 76.8537 81.353 77.1119 81.547 77.0674Z" fill="black"/>
<path d="M79.862 74.4145C81.016 73.9961 82.078 73.4264 83.0379 72.7231C83.1911 72.6074 82.9664 72.4204 82.8235 72.5362C81.9146 73.2127 80.8934 73.7557 79.7905 74.1563C79.6067 74.2275 79.6884 74.4857 79.862 74.4145Z" fill="black"/>
<path d="M82.9255 72.6074C83.1196 72.6074 83.1196 72.3403 82.9255 72.3403C82.7315 72.3403 82.7315 72.6074 82.9255 72.6074Z" fill="black"/>
<path d="M83.2933 72.287C83.4669 71.9309 83.6507 71.5392 83.9775 71.2632C84.4166 70.8894 84.9476 70.9428 85.5093 71.0496C86.5509 71.2544 87.5721 71.5392 88.5933 71.7974C89.543 72.0288 90.4927 72.2336 91.4731 72.3315C92.045 72.3849 92.5249 72.4472 93.0355 72.6698C93.4134 72.83 93.7401 72.9902 94.1588 73.0258C94.3529 73.0437 94.3529 72.7766 94.1588 72.7588C93.5972 72.7143 93.1581 72.376 92.627 72.2247C92.096 72.0733 91.5037 72.0822 90.9523 72.0021C89.7473 71.833 88.5729 71.5125 87.4087 71.2098C86.8368 71.0674 86.265 70.925 85.6829 70.8093C85.254 70.7291 84.8047 70.6312 84.3757 70.7469C83.6303 70.9428 83.2729 71.6371 82.9971 72.2158C82.9256 72.376 83.2218 72.4472 83.2933 72.287Z" fill="black"/>
<path d="M84.9169 75.2603C87.1023 74.9754 89.2672 74.9309 91.473 74.8953C92.2389 74.8864 93.0559 74.8063 93.6686 74.3701C94.1894 73.9962 94.4855 73.4532 94.3426 72.8745C94.3017 72.7054 94.0056 72.7766 94.0464 72.9458C94.2405 73.7558 93.4031 74.3523 92.5759 74.5303C91.7283 74.7084 90.8092 74.6193 89.9412 74.6371C88.2256 74.6639 86.5304 74.7885 84.8352 75.011C84.6412 75.0288 84.7331 75.287 84.9169 75.2603Z" fill="black"/>
<path d="M92.6679 73.4889C93.4235 73.0171 94.1894 72.5453 94.9451 72.0735C94.9962 71.7708 95.1596 71.1121 95.7825 70.5513C95.9663 70.3821 96.3952 69.9904 97.0386 69.8836C97.7126 69.7679 98.2334 70.035 98.8155 70.2664C99.755 70.6403 100.664 70.7827 102.461 71.0854C103.881 71.3168 104.595 71.4326 105.617 71.3881C107.005 71.3168 107.996 70.9964 108.588 71.5038C108.65 71.5572 108.905 71.7975 108.884 72.0913C108.854 72.4652 108.394 72.7056 108.027 72.8925C106.423 73.6937 105.525 73.9251 105.525 73.9251C103.258 74.5038 102.114 74.7975 101.134 74.8687C100.337 74.9221 99.2035 74.9489 97.8351 74.7619C97.4369 75.9548 96.2318 76.7203 95.0983 76.658C93.638 76.5779 92.29 75.1447 92.6679 73.4889Z" fill="black"/>
<path d="M78.0034 65.6196C78.228 65.0232 78.6467 64.2665 79.4331 64.0172C79.9437 63.857 80.4134 63.9638 80.5666 63.9994C81.5163 64.2042 83.4668 63.9104 87.3576 63.3318C89.2876 63.0469 91.7283 62.6285 94.5366 62.0054C94.5468 62.4594 94.5366 63.0558 94.506 63.7502C94.4345 65.308 94.2506 66.4831 94.2098 66.759C94.0362 67.8629 93.7298 69.6967 92.8006 71.9222C92.5657 72.4919 92.3308 72.9637 92.1674 73.2842C92.5657 73.4444 92.9946 73.6581 93.4133 73.9608C95.1391 75.1625 95.6395 76.8628 95.8029 77.5839C95.5578 77.842 95.1902 78.2248 94.7204 78.661C92.821 80.4236 91.0645 81.4117 87.715 83.2188C85.6522 84.3316 84.1408 85.1417 81.7205 86.388C78.7795 87.9013 76.4001 89.0764 73.4386 89.8152C72.7034 90.0022 71.5392 90.2514 70.0687 90.1179C69.3538 90.0556 68.0671 89.9398 66.8315 89.1565C65.2486 88.1594 64.7482 86.6995 64.544 86.0586C64.0844 84.6254 64.258 83.2812 64.6869 81.8835C64.9831 80.9043 66.0554 77.6551 69.7827 73.9964C70.5282 73.2664 72.6523 71.6195 76.8801 68.3258C77.9013 67.5335 78.7386 66.8837 79.3003 66.4564C78.8714 66.1715 78.4425 65.8955 78.0034 65.6196Z" fill="white"/>
<path opacity="0.18" d="M91.8917 63.1536C91.6568 63.937 91.279 65.0675 90.7071 66.3939C85.4888 78.4473 73.8267 83.6549 74.7764 84.9546C75.4708 85.916 82.129 83.5214 86.9287 81.0021C90.5233 79.1149 93.1988 77.0941 94.9859 75.5719C94.7 75.2069 94.2609 74.7084 93.5971 74.2366C92.9537 73.7826 92.341 73.5066 91.8815 73.3375C92.1981 72.9369 92.6167 72.3316 92.9742 71.5571C93.209 71.0586 93.4133 70.5245 93.6788 69.4384C94.1077 67.7203 94.2813 66.3583 94.3324 65.931C94.4549 64.9073 94.5672 63.5809 94.5468 62.0142C93.6584 62.388 92.7801 62.7708 91.8917 63.1536Z" fill="#9B9797"/>
<path d="M94.3936 62.0054C94.4039 63.6878 94.2813 65.3703 94.0158 67.0439C93.7707 68.5483 93.4643 70.0973 92.8312 71.5216C92.147 73.0616 90.9726 74.1833 89.5532 75.2426C88.1031 76.3198 86.6427 77.3791 85.1824 78.4384C83.5077 79.658 81.8227 80.8687 80.1479 82.0883C79.9947 82.1951 80.2092 82.382 80.3624 82.2752C83.4362 80.0497 86.51 77.8331 89.5634 75.5809C90.9113 74.5839 92.1368 73.5513 92.8721 72.118C93.5869 70.7293 93.9341 69.2071 94.2098 67.7115C94.557 65.8243 94.7204 63.9193 94.7 62.0054C94.7 61.8273 94.3936 61.8273 94.3936 62.0054Z" fill="black"/>
<path d="M78.1771 65.8689C78.5958 66.0648 79.0145 66.2606 79.4434 66.4565C79.617 66.5366 79.7701 66.3051 79.5965 66.225C79.1778 66.0292 78.7592 65.8333 78.3303 65.6375C78.1567 65.5573 78.0035 65.7888 78.1771 65.8689Z" fill="black"/>
<path d="M79.4433 66.3496C75.8078 68.9312 71.9886 71.4861 68.9556 74.6196C66.3413 77.3169 64.1866 80.7352 64.1968 84.3584C64.1968 85.9518 64.6972 87.6165 66.0452 88.747C67.3932 89.8865 69.3437 90.3316 71.1818 90.2515C73.4285 90.1536 75.5628 89.3791 77.5643 88.5245C79.7088 87.6076 81.741 86.5215 83.7834 85.4444C87.9907 83.2189 92.6883 81.1447 95.8438 77.7531C95.9663 77.6195 95.7519 77.4326 95.6293 77.5661C92.9844 80.4148 89.2672 82.2397 85.7237 84.1091C83.7732 85.1417 81.8431 86.1922 79.8518 87.1714C77.9013 88.1328 75.8691 89.0497 73.7144 89.5927C71.6924 90.1002 69.4356 90.207 67.5259 89.3257C65.6878 88.4889 64.7483 86.8687 64.5542 85.1061C64.1764 81.5453 66.229 78.0023 68.7105 75.2961C71.8047 71.9223 75.8487 69.2339 79.668 66.5276C79.8109 66.4297 79.5965 66.2428 79.4433 66.3496Z" fill="black"/>
<path d="M92.096 73.3909C94.0158 74.1921 95.3536 75.7766 95.6702 77.6104C95.7008 77.7796 95.9969 77.7084 95.9663 77.5392C95.6497 75.6431 94.2405 73.9784 92.2594 73.1594C92.0755 73.0882 91.9224 73.3197 92.096 73.3909Z" fill="black"/>
<path d="M92.7087 73.6226C93.1172 73.4802 93.444 73.2398 93.7912 73.0084C94.1997 72.7324 94.6184 72.4653 95.0268 72.1894C95.18 72.0826 95.0268 71.8511 94.8737 71.9579C94.506 72.1983 94.1384 72.4386 93.7708 72.6879C93.4133 72.9282 93.0559 73.222 92.627 73.3644C92.4534 73.4268 92.5249 73.6849 92.7087 73.6226Z" fill="black"/>
<path d="M95.1799 72.0823C95.3842 71.5571 95.6293 71.0408 95.956 70.5601C96.4054 69.9013 97.0794 69.9725 97.835 70.1417C99.0094 70.3998 100.133 70.7915 101.317 71.023C103.615 71.4681 105.974 71.6194 108.323 71.4859C108.517 71.477 108.517 71.2099 108.323 71.2188C105.555 71.3791 102.767 71.1298 100.092 70.4711C99.4486 70.3108 98.8256 70.1061 98.1823 69.9458C97.6921 69.8212 97.11 69.6788 96.5994 69.7678C96.1399 69.8479 95.8744 70.1506 95.6497 70.4889C95.3331 70.9696 95.088 71.4859 94.8838 72.0111C94.8225 72.1713 95.1187 72.2426 95.1799 72.0823Z" fill="black"/>
<path d="M95.6191 76.382C96.385 75.8746 97.1407 75.3672 97.9066 74.8598C98.0598 74.753 97.9066 74.5215 97.7534 74.6283C96.9875 75.1357 96.2318 75.6432 95.4659 76.1506C95.3127 76.2574 95.4659 76.4888 95.6191 76.382Z" fill="black"/>
<path d="M97.8964 74.7976C100.388 75.2694 102.931 74.9134 105.29 74.13C106.362 73.7739 107.588 73.3733 108.507 72.768C109.15 72.3496 109.242 71.5484 108.394 71.2635C108.21 71.2012 108.129 71.4594 108.313 71.5217C108.772 71.673 108.823 72.1092 108.507 72.4119C108.353 72.5632 108.139 72.6611 107.935 72.768C107.516 72.9727 107.087 73.1597 106.658 73.3377C105.749 73.7116 104.81 74.0321 103.84 74.2813C101.93 74.762 99.9286 74.9223 97.9679 74.5484C97.7841 74.5039 97.7024 74.762 97.8964 74.7976Z" fill="black"/>
<path d="M71.2839 36.3497C72.8361 35.2281 75.1542 33.875 78.2484 33.0738C79.6985 32.6999 81.5163 32.237 83.9263 32.4151C87.623 32.691 90.1658 34.2756 91.0645 34.8542C92.4737 35.7533 93.4337 36.7058 94.026 37.3735C94.1383 43.6138 94.2915 49.863 94.4855 56.1033C94.5468 58.0261 94.608 59.9578 94.6795 61.8807C93.2294 62.664 91.1972 63.5453 88.6238 64.0617C82.5987 65.2634 77.5847 63.6611 75.5525 62.8866C75.5423 61.3109 75.4299 58.943 74.8785 56.1033C73.9798 51.4386 72.5808 49.5603 71.7026 45.5455C71.2634 43.4713 70.8447 40.3556 71.2839 36.3497Z" fill="#0A3871"/>
<path d="M89.7473 37.8899C89.2469 38.3707 89.155 38.9137 89.1856 40.9967C89.2061 43.1866 89.3388 44.6822 89.4205 46.4181C89.4818 47.6732 89.5328 48.6703 89.5022 49.97C89.4716 51.6079 89.349 52.9521 89.2367 53.8512C88.2359 54.8304 87.3475 55.596 86.6837 56.1479C85.1927 57.3853 83.569 58.7206 81.1692 59.9758C80.2195 60.4654 79.4026 60.8215 78.8511 61.044C78.3507 60.9728 77.7891 60.866 77.1763 60.7325C75.7262 60.412 75.1237 60.1271 74.031 60.1271C73.7043 60.1271 72.6729 60.1271 72.5707 60.4476C72.4788 60.7147 73.0507 61.1331 73.5 61.3378C73.9187 61.5247 74.1025 61.4713 74.5212 61.6405C74.991 61.8363 75.2973 62.1212 75.4811 62.3348C75.2871 62.5752 74.991 62.9402 74.6642 63.412C74.2863 63.9639 74.2047 64.1775 73.7655 64.8363C73.306 65.5306 73.0711 65.8778 72.8669 66.0559C72.5503 66.314 72.3563 66.3674 70.9368 66.9194C69.5276 67.4713 69.2825 67.5959 69.2825 67.7472C69.2825 67.8986 69.5582 67.9342 70.6509 68.3437C71.5393 68.673 71.621 68.7443 72.0806 68.86C72.6524 69.0024 72.9996 69.0914 73.4183 69.0113C74.0821 68.8956 74.511 68.4594 74.6948 68.2279C74.7867 68.2992 75.0114 68.4505 75.3075 68.4594C75.5424 68.4594 75.7364 68.3793 75.8896 68.2725C76.533 67.8719 76.8496 67.133 77.4827 66.3051C77.595 66.1627 77.9933 65.6375 78.6367 65.0499C79.0349 64.6761 79.4026 64.4001 79.6681 64.2132C80.0255 64.1419 80.5565 64.0351 81.1896 63.8749C83.6507 63.2606 85.4276 62.5218 86.9186 61.8986C87.7866 61.5337 88.7669 61.0529 90.7174 60.1004C92.4126 59.2725 93.2909 58.8096 94.067 57.9016C94.1487 57.8037 94.5674 57.3141 94.935 56.593C95.0473 56.3705 95.4456 55.5782 95.66 54.1895C95.7622 53.5753 95.7622 53.237 95.7724 51.3142C95.7928 48.8661 95.7928 49.1599 95.7928 48.9106C95.7826 45.3231 95.5681 45.6436 95.4966 42.3498C95.4864 42.0383 95.4762 41.1926 95.1801 40.1243C94.8635 38.9671 94.4652 38.4508 94.2406 38.1926C93.9546 37.8632 93.6074 37.4716 93.0151 37.249C91.9327 36.8306 90.4928 37.1689 89.7473 37.8899Z" fill="white"/>
<path opacity="0.25" d="M93.0253 37.24C93.2704 37.9432 93.5665 38.9581 93.7708 40.1866C94.0159 41.6732 94.1078 43.3112 93.5563 47.593C93.0968 51.1716 92.8721 52.9609 92.2798 54.6345C91.4322 57.0202 90.8195 58.7561 88.9507 60.127C87.7457 61.0083 86.4284 61.4178 83.7834 62.2279C81.8432 62.8243 80.1786 63.1804 79.0349 63.403C78.2179 64.3644 77.0027 65.5839 75.2769 66.7412C73.9289 67.6492 72.632 68.2724 71.5597 68.6996C71.7129 68.7887 72.346 69.1447 73.2038 69.0468C74.2046 68.9311 74.7458 68.308 74.8377 68.1922C75.0318 68.3169 75.3177 68.4504 75.6343 68.4059C76.2878 68.3169 76.635 67.5068 76.8087 67.1418C77.1865 66.3851 77.9422 65.3436 79.6374 64.2041C80.7607 63.946 82.2823 63.5543 84.049 62.9668C86.51 62.1389 88.1644 61.3377 89.9413 60.4742C92.7904 59.0855 93.4338 58.5158 93.9035 57.9638C94.7613 56.9579 95.1188 55.9253 95.2719 55.4713C95.5477 54.6612 95.5987 53.7532 95.7008 51.9817C95.7723 50.6642 95.7723 49.6494 95.7723 48.8838C95.7723 47.5663 95.7417 46.5871 95.7111 45.7414C95.6702 44.5129 95.5885 43.0708 95.3843 41.3438C95.2311 40.0886 95.1188 39.5901 94.792 39.0293C94.2916 38.1391 93.5461 37.5694 93.0253 37.24Z" fill="#9B9797"/>
<path d="M89.5941 37.8542C89.0631 39.0115 89.0018 40.2578 89.0325 41.4952C89.0631 42.8572 89.1448 44.2103 89.2163 45.5723C89.3592 48.3319 89.4614 51.1004 89.0835 53.8511C89.0631 54.0203 89.3695 54.0203 89.3899 53.8511C89.7575 51.1627 89.6758 48.4476 89.5329 45.7503C89.4614 44.415 89.3797 43.0797 89.3388 41.7355C89.298 40.4447 89.3286 39.145 89.8903 37.9255C89.9618 37.7652 89.6656 37.694 89.5941 37.8542Z" fill="black"/>
<path d="M89.6757 53.6196C88.7362 54.0736 87.9805 54.7323 87.2555 55.4178C86.4692 56.1567 85.6829 56.8777 84.8046 57.5365C83.0073 58.8985 80.9853 60.0201 78.8204 60.8925C78.6366 60.9637 78.8 61.1952 78.9736 61.124C81.0568 60.2872 83.0073 59.219 84.7536 57.9282C85.6216 57.2961 86.4181 56.6018 87.184 55.8807C87.9806 55.124 88.7771 54.3585 89.8187 53.8599C90.0025 53.762 89.8494 53.5306 89.6757 53.6196Z" fill="black"/>
<path d="M78.8919 60.9104C77.7686 60.7057 76.6351 60.492 75.5118 60.2695C74.9501 60.1627 74.3782 60.0291 73.8064 59.9401C73.4489 59.8867 73.0711 59.86 72.7545 60.038C72.2644 60.314 72.2644 60.8214 72.7035 61.1241C73.02 61.3466 73.4285 61.4446 73.8064 61.5514C74.4191 61.7205 74.9399 61.9342 75.3382 62.3882C75.4607 62.5217 75.7262 62.3882 75.6037 62.2546C75.2462 61.8541 74.8173 61.5692 74.2659 61.4C73.8881 61.2843 73.4694 61.2131 73.1222 61.044C72.8771 60.9282 72.5605 60.7502 72.7443 60.4297C72.9179 60.1271 73.357 60.1538 73.6736 60.1983C74.5212 60.3051 75.3688 60.5188 76.2164 60.6879C77.0844 60.857 77.9524 61.0173 78.8204 61.1775C79.0042 61.2042 79.0859 60.946 78.8919 60.9104Z" fill="black"/>
<path d="M75.093 62.4328C74.6437 63.1538 74.1842 63.866 73.7348 64.587C73.5102 64.9342 73.3161 65.3081 73.0506 65.6464C72.7749 65.9936 72.4073 66.1716 71.9784 66.3496C71.1716 66.679 70.3036 66.9461 69.5275 67.3289C69.1803 67.5069 68.9556 67.8274 69.2518 68.1389C69.6194 68.5217 70.3444 68.3704 70.8346 68.2992C71.5086 68.2012 72.152 68.0054 72.7647 67.7561C74.0412 67.222 75.1237 66.3852 75.8998 65.3526C76.0121 65.2102 75.7466 65.0766 75.6343 65.2191C74.9501 66.1449 74.0004 66.8927 72.8872 67.409C72.3562 67.6493 71.7843 67.8452 71.2023 67.9609C70.8755 68.0321 70.5283 68.0944 70.1811 68.1033C69.8645 68.1211 69.7828 68.1567 69.6296 67.8808C69.4356 67.7205 69.456 67.6137 69.6807 67.5603C69.7522 67.5336 69.8134 67.5069 69.8849 67.4802C70.5385 67.2131 71.2023 66.955 71.8558 66.6879C72.3664 66.4832 72.8668 66.3051 73.214 65.9045C73.6225 65.4327 73.9084 64.8719 74.2352 64.3556C74.6131 63.7592 74.9909 63.1627 75.3585 62.5752C75.4505 62.415 75.1849 62.2814 75.093 62.4328Z" fill="black"/>
<path d="M79.7599 64.3823C82.4865 63.7146 85.1314 62.8244 87.664 61.7206C88.92 61.1687 90.1455 60.5722 91.3403 59.9135C92.4125 59.3259 93.5461 58.7295 94.312 57.8304C94.4243 57.688 94.1588 57.5544 94.0465 57.6969C93.2499 58.6405 92.0041 59.2547 90.8807 59.8601C89.737 60.4743 88.5524 61.044 87.3474 61.5692C84.8863 62.6286 82.3231 63.4832 79.6782 64.133C79.4944 64.1686 79.5761 64.4268 79.7599 64.3823Z" fill="black"/>
<path d="M89.7983 38.0946C90.6459 36.6436 92.8211 36.9729 93.8933 38.0056C95.18 39.2519 95.2413 41.0768 95.3843 42.6613C95.6906 46.1242 95.7519 49.6138 95.5068 53.0767C95.3843 54.7591 95.0983 56.5395 93.8116 57.8748C93.6891 58.0084 93.9035 58.1953 94.0261 58.0618C95.18 56.8511 95.5783 55.32 95.7417 53.7888C95.9561 51.8304 95.9561 49.8452 95.9357 47.8779C95.9153 45.8215 95.803 43.7563 95.5885 41.7088C95.4251 40.1688 95.1085 38.4685 93.6482 37.4448C92.4024 36.5724 90.3191 36.5991 89.5226 37.9611C89.4409 38.1124 89.7064 38.2459 89.7983 38.0946Z" fill="black"/>
<path d="M70.5589 68.4504C71.3043 68.7442 72.203 69.1893 73.0506 69.1893C73.8675 69.1804 74.4701 68.5929 75.0215 68.1478C76.6044 66.8659 78.1872 65.584 79.7701 64.311C79.9131 64.1953 79.6986 64.0083 79.5556 64.1241C78.2179 65.2101 76.8801 66.2872 75.5423 67.3733C74.95 67.8451 74.3373 68.5216 73.5918 68.8154C72.7136 69.1626 71.5086 68.5394 70.7222 68.2279C70.5384 68.1478 70.3852 68.3792 70.5589 68.4504Z" fill="black"/>
<path d="M74.7152 68.2634C75.0522 68.8154 75.7977 68.5928 76.1755 68.21C76.921 67.4445 77.5031 66.5186 78.1362 65.6908C78.2486 65.5483 77.9831 65.4148 77.8707 65.5572C77.4725 66.0735 77.0742 66.5899 76.6759 67.1062C76.4513 67.391 75.4607 68.9311 74.9807 68.1299C74.8888 67.9786 74.6233 68.1121 74.7152 68.2634Z" fill="black"/>
<path d="M72.346 67.8273C72.6523 67.9697 73.0302 68.1122 73.3672 67.9697C73.5408 67.8896 73.6123 67.765 73.694 67.6226C73.8369 67.3822 73.9799 67.1953 74.2454 67.0439C74.4088 66.946 74.2556 66.7146 74.0922 66.8125C73.8471 66.9549 73.6429 67.133 73.4999 67.3644C73.3978 67.5335 73.3365 67.7383 73.071 67.7561C72.877 67.7739 72.6625 67.6671 72.4992 67.5959C72.3358 67.5246 72.1724 67.7472 72.346 67.8273Z" fill="black"/>
<path d="M70.2525 16.9611C69.895 17.5931 69.5376 18.6525 69.4253 18.9996C69.2619 19.4982 68.8943 20.6643 68.69 22.2133C68.5777 23.0679 68.4551 24.0026 68.5573 25.2399C68.6083 25.8275 68.6798 26.7533 69.0781 27.9016C69.3436 28.685 69.7316 29.8156 70.7835 30.9728C71.7026 31.9788 72.7544 32.6108 73.5918 32.9936C74.1228 33.0025 74.7662 32.9758 75.481 32.8601C76.7677 32.6464 77.7685 32.228 78.4425 31.8897C78.5344 32.3437 78.6569 32.8244 78.8101 33.323C79.1267 34.3556 79.5147 35.2636 79.9028 36.047C80.3215 35.9847 80.8219 35.8778 81.3529 35.6642C83.0379 34.9787 83.8446 33.7146 84.1306 33.1894C83.9774 32.6731 83.8548 32.1123 83.7425 31.5337C83.3544 29.3705 83.4566 27.4387 83.7017 25.872C83.9161 25.9343 84.2633 26.0144 84.6922 25.9966C85.5296 25.9521 86.1015 25.5515 86.3874 25.3379C86.6325 25.1598 87.7456 24.2963 87.7048 23.0144C87.6945 22.7118 87.6741 21.9729 87.0716 21.5723C86.51 21.2073 85.7543 21.3409 85.2028 21.4388C84.5697 21.5545 84.0999 21.786 83.814 21.9462C84.0284 21.332 84.4778 19.7563 83.814 17.9225C83.671 17.5308 82.7213 15.0382 79.9232 13.9611C76.1244 12.4834 71.5596 14.6733 70.2525 16.9611Z" fill="white"/>
<path opacity="0.24" d="M81.7921 17.0146C81.8738 17.8425 81.9351 19.0442 81.7921 20.4686C81.353 24.786 79.3923 27.786 78.8817 28.5338C78.1056 29.6732 76.778 31.329 74.6539 32.9581C75.2871 32.8868 76.0121 32.7622 76.7882 32.5219C78.9225 31.8631 80.3522 30.7326 81.1283 29.9937C81.1896 30.9818 81.3836 32.1836 81.8432 33.5011C82.0474 34.0619 82.2721 34.5782 82.5069 35.0411C83.0482 34.4269 83.5792 33.8127 84.1204 33.1895C84.0081 32.6109 83.906 31.9966 83.8345 31.3646C83.5996 29.4507 83.5996 27.6881 83.7222 26.1213C84.1817 26.1302 84.8455 26.0946 85.5501 25.8543C88.6341 24.786 90.3906 20.5398 88.7261 18.2253C88.6546 18.1273 88.2869 17.6288 87.5313 17.1837C85.1927 15.8128 82.221 16.8543 81.7921 17.0146Z" fill="#9B9797"/>
<path d="M69.507 18.7326C69.3027 18.1184 69.0168 16.9433 69.3129 15.5012C69.4048 15.0561 69.7214 13.6229 70.8447 12.4923C72.4889 10.8454 74.5517 11.157 77.2272 10.3202C78.9224 9.79501 81.2507 8.69116 83.6097 6.09177C83.3953 7.05319 83.1808 8.02351 82.9664 8.98492C83.334 9.07394 84.5696 9.3054 85.8359 8.76237C87.9396 7.86327 88.1234 5.69118 88.1336 5.59326C88.3889 6.09177 88.8485 7.19562 88.6442 8.60214C88.5013 9.56355 88.103 10.2846 87.8171 10.7208C87.9396 10.8365 88.5932 11.4241 89.3488 11.3351C90.2679 11.2282 91.1257 10.1333 90.8806 8.71786C91.0849 9.24308 91.33 10.1066 91.2687 11.1659C91.187 12.4567 90.6968 13.427 90.37 13.9522C90.4517 14.0146 90.9726 14.424 91.7078 14.3439C92.3512 14.2727 92.9026 13.8632 93.1171 13.2846C93.066 13.881 92.9435 14.7445 92.5452 15.7326C92.004 17.0679 91.5546 17.1748 91.33 18.1273C90.9726 19.6228 91.8916 20.1302 91.6465 21.4655C91.4423 22.5872 90.6049 23.2904 89.5429 24.1895C87.6128 25.8186 85.3968 26.6999 83.5382 27.1895C83.6199 26.691 83.7118 26.1925 83.7935 25.694C84.0284 25.8186 84.4369 25.9877 84.9475 25.9699C85.9891 25.9343 86.6427 25.1243 86.9899 24.6881C87.3881 24.1984 88.0519 23.3617 87.6945 22.4626C87.3984 21.7326 86.612 21.4299 86.5406 21.4032C85.6215 21.0649 84.4369 21.3676 83.671 22.1866C83.2421 20.7178 82.8234 19.2578 82.3945 17.789C80.9444 16.9878 79.5045 16.1955 78.0544 15.3944C77.3396 15.2786 75.3891 15.0472 73.2037 15.8929C70.9979 16.7475 69.8746 18.1985 69.507 18.7326Z" fill="#0A3871"/>
<path d="M69.3538 18.697C68.4858 21.5278 67.965 24.5367 68.7615 27.4299C69.4151 29.78 71.0695 32.4595 73.888 33.2251C74.0718 33.2785 74.1535 33.0203 73.9697 32.9669C71.1409 32.2013 69.5581 29.415 68.976 27.0649C68.2918 24.3053 68.8126 21.4566 69.6398 18.7682C69.701 18.608 69.4049 18.5368 69.3538 18.697Z" fill="black"/>
<path d="M74.1126 33.1806C78.8204 32.7622 82.752 29.7978 83.8549 25.7741C83.8957 25.605 83.6098 25.5338 83.5587 25.7029C82.4865 29.5931 78.6978 32.504 74.1126 32.9135C73.9186 32.9313 73.9084 33.1984 74.1126 33.1806Z" fill="black"/>
<path d="M83.5894 25.8452C85.693 26.9669 87.7456 24.6167 87.8784 22.9699C87.9499 22.0975 87.4903 21.4298 86.4998 21.1806C85.5807 20.9491 84.5799 21.1895 83.9264 21.7948C83.7936 21.9194 84.0081 22.1064 84.1408 21.9817C84.6821 21.4743 85.499 21.2518 86.2853 21.4031C86.6938 21.4832 87.1432 21.6791 87.378 21.9995C87.6333 22.3467 87.6027 22.8274 87.5414 23.2102C87.2963 24.59 85.5399 26.5663 83.7426 25.6048C83.5792 25.5247 83.4158 25.7562 83.5894 25.8452Z" fill="black"/>
<path d="M83.5689 25.8274C83.1707 28.2933 83.3136 30.7947 83.9876 33.2161C84.0387 33.3852 84.3348 33.314 84.2838 33.1449C83.62 30.768 83.477 28.3111 83.8651 25.8986C83.8855 25.7295 83.5894 25.6583 83.5689 25.8274Z" fill="black"/>
<path d="M78.2893 31.9253C78.6059 33.3674 79.096 34.765 79.77 36.1181C79.8517 36.2783 80.1172 36.1359 80.0355 35.9846C79.3718 34.6582 78.8918 33.2784 78.5854 31.854C78.5446 31.6849 78.2586 31.7561 78.2893 31.9253Z" fill="black"/>
<path d="M79.9845 36.1539C81.9554 35.8779 83.62 34.6939 84.3655 33.0827C84.4369 32.9224 84.1408 32.8512 84.0693 33.0115C83.3647 34.5426 81.7614 35.6376 79.9028 35.8957C79.7088 35.9224 79.7905 36.1806 79.9845 36.1539Z" fill="black"/>
<path d="M78.5344 32.2369C78.9531 32.2547 79.2391 32.0054 79.5556 31.7918C79.9743 31.5069 80.3726 31.2043 80.7402 30.8838C81.4244 30.2873 81.9759 29.6019 82.3333 28.8185C82.4048 28.6583 82.1086 28.5871 82.0371 28.7473C81.7206 29.4417 81.2304 30.0559 80.6381 30.59C80.3726 30.8393 80.0867 31.0618 79.7905 31.2844C79.4637 31.5247 78.994 31.9876 78.5344 31.9698C78.3404 31.9609 78.3404 32.228 78.5344 32.2369Z" fill="black"/>
<path d="M78.5548 32.0945C79.4228 31.6049 80.2296 31.0441 80.9852 30.4298C81.1282 30.3141 80.9138 30.1183 80.7708 30.2429C80.0355 30.8482 79.2492 31.3913 78.4016 31.872C78.228 31.9521 78.3914 32.1835 78.5548 32.0945Z" fill="black"/>
<path d="M72.5502 19.2133C71.9783 21.4834 71.6516 23.789 71.5801 26.1124C71.5801 26.2459 71.7843 26.2904 71.866 26.1836C72.2643 25.6317 72.6625 25.0709 73.0608 24.5189C73.1629 24.3765 72.8974 24.2341 72.7953 24.3854C72.397 24.9373 71.9988 25.4982 71.6005 26.0501C71.6924 26.0768 71.7945 26.0946 71.8864 26.1213C71.9579 23.8246 72.2847 21.5368 72.8464 19.2935C72.8872 19.1154 72.5911 19.0442 72.5502 19.2133Z" fill="black"/>
<path d="M72.9587 29.4596C72.7136 29.059 72.5502 28.6317 72.5094 28.1777C72.4788 27.8572 72.5604 26.5575 73.2549 27.0738C73.6225 27.3498 73.5714 27.9551 73.5816 28.3557C73.5816 28.5427 73.5816 28.7385 73.5612 28.9254C73.551 29.059 73.5306 29.1925 73.5 29.3171C73.2344 29.4774 73.0302 29.4685 72.8974 29.2993C72.7647 29.1747 72.54 29.3616 72.683 29.4863C73.1221 29.878 73.694 29.8958 73.8165 29.2815C73.9084 28.8453 73.9084 28.3824 73.8676 27.9462C73.8369 27.599 73.8369 27.1005 73.5408 26.8335C73.1017 26.4418 72.4788 26.8068 72.3052 27.2252C71.9886 27.9729 72.2949 28.9165 72.7034 29.5931C72.7851 29.7444 73.0506 29.6109 72.9587 29.4596Z" fill="black"/>
<path d="M75.0726 21.4478C75.3789 22.703 77.2682 22.8009 77.8298 21.6436C77.9013 21.4834 77.6052 21.4122 77.5337 21.5724C77.0741 22.516 75.6036 22.338 75.3687 21.3766C75.3279 21.2163 75.0317 21.2786 75.0726 21.4478Z" fill="black"/>
<path d="M74.47 18.3588C74.8581 17.6021 75.8588 17.2371 76.7779 17.4063C77.7276 17.5843 78.4527 18.2252 78.9224 18.9285C79.0246 19.0798 79.2901 18.9463 79.1879 18.795C78.6467 17.9849 77.7889 17.2638 76.686 17.1214C75.6955 16.9968 74.6334 17.4063 74.2045 18.2163C74.1228 18.3855 74.3883 18.519 74.47 18.3588Z" fill="black"/>
<path d="M68.4858 18.6526C68.7615 18.1541 69.2415 17.611 69.9461 17.6199C70.6201 17.6288 71.1103 18.1452 71.4473 18.5992C71.5494 18.7416 71.8149 18.6081 71.7128 18.4656C71.3248 17.9226 70.7427 17.3618 69.9461 17.3529C69.1292 17.344 68.5573 17.9315 68.2305 18.519C68.1386 18.6704 68.4041 18.8039 68.4858 18.6526Z" fill="black"/>
<path d="M70.2933 22.6851C70.4738 22.6851 70.6201 22.0992 70.6201 21.3765C70.6201 20.6537 70.4738 20.0679 70.2933 20.0679C70.1129 20.0679 69.9666 20.6537 69.9666 21.3765C69.9666 22.0992 70.1129 22.6851 70.2933 22.6851Z" fill="black"/>
<path d="M71.2329 36.7681C71.2023 37.0975 71.1614 37.5515 71.141 38.0767C71.0491 39.8749 71.1308 41.2369 71.1614 41.6019C71.2431 42.7859 71.4269 44.3348 71.8558 46.133C71.4473 46.5425 70.8346 47.1478 70.0483 47.86C68.5573 49.222 67.7914 49.9164 66.566 50.6374C65.1976 51.4386 64.2479 51.6879 63.7373 51.8036C63.0939 51.9371 62.4812 52.0617 61.7357 51.9193C60.5205 51.679 59.7955 50.8956 59.5299 50.5929C58.8559 49.8452 58.7028 49.1152 58.427 47.6909C58.2228 46.6493 58.182 45.8571 58.1207 44.3259C58.09 43.5959 58.0492 42.7058 58.0696 41.5129C58.09 40.1687 58.1717 38.5752 58.3964 36.7948C58.4985 35.9936 58.6415 35.0055 58.8662 33.8839C58.6926 33.6702 58.5087 33.4566 58.3147 33.234C58.1105 33.0026 57.9164 32.78 57.7122 32.5575C57.1914 32.9403 56.6808 33.3319 56.16 33.7147C56.0272 33.7592 55.7924 33.8305 55.5064 33.8038C54.9652 33.7592 54.6486 33.4299 54.5363 33.323C54.0359 32.8245 54.1074 32.1925 54.1278 32.0679C54.8324 31.4002 55.5371 30.7415 56.2519 30.0738C56.2621 29.691 56.3234 29.1925 56.497 28.6406C56.6297 28.2311 56.7931 27.8928 56.9463 27.608C57.0791 27.3765 57.2629 27.1184 57.4978 26.8602C57.9164 26.3795 58.3658 26.0412 58.7334 25.8098C58.4373 25.9255 58.3658 25.9255 58.3453 25.9077C58.2943 25.8365 58.7743 25.3112 59.4482 25.2578C59.8261 25.2222 60.1222 25.3469 60.3265 25.427C60.6431 25.5605 60.8575 25.7296 60.9903 25.8543C61.6234 25.3825 62.2565 24.9107 62.8897 24.4478C63.1144 24.5635 63.339 24.697 63.5637 24.8305C64.0845 25.1421 64.5542 25.4537 64.9729 25.7563C64.8198 25.9255 64.6257 26.1124 64.3806 26.2994C63.9722 26.6109 63.5637 26.7979 63.2471 26.9225C63.4411 26.9759 63.7883 27.1005 63.9619 27.3943C64.1356 27.6792 64.0641 27.9907 63.9619 28.3824C63.8905 28.6495 63.7986 28.8631 63.7271 29.0056C63.7679 29.3795 63.7883 29.8869 63.6658 30.4566C63.4718 31.3913 63.0224 32.0857 62.7161 32.4863C62.7059 32.8334 62.6957 33.3765 62.7161 34.0441C62.7978 36.7948 63.2573 38.4061 63.5535 40.4357C63.7271 41.593 63.9007 43.3111 63.8496 45.4743C64.0845 45.3407 64.4215 45.1271 64.7993 44.8511C65.7593 44.1479 66.372 43.4446 67.1787 42.412C67.9753 41.4061 68.4961 40.6583 69.2007 39.6613C69.6398 39.0114 70.3444 38.0233 71.2329 36.7681Z" fill="white"/>
<path opacity="0.24" d="M61.9502 28.6406C61.7357 29.0501 61.5213 29.4685 61.3068 29.8958C60.6839 31.1777 60.1733 32.4062 59.7546 33.5812C59.6627 35.4329 59.6116 36.9818 59.5708 38.1035C59.5197 39.8037 59.6422 41.8334 59.8669 45.8927C59.9588 47.5663 60.0405 48.5811 60.9392 49.32C61.8787 50.0855 63.1858 50.1033 63.9211 50.1033C67.8425 50.0944 70.7733 47.1835 71.5801 46.3378C70.4874 47.958 69.2415 49.0173 68.3939 49.6404C67.434 50.3437 66.1983 51.225 64.2785 51.6612C62.6548 52.0351 61.9195 51.955 61.7255 51.9194C60.3264 51.6256 59.5503 50.6108 59.2746 50.2636C58.6108 49.4001 58.3964 48.501 58.2738 46.5693C58.1513 44.5841 58.284 44.0589 58.3249 41.326C58.3555 38.7177 58.2432 37.9788 58.4679 36.1717C58.6006 35.1124 58.764 34.24 58.8968 33.6525C58.4985 33.2875 58.1002 32.9225 57.702 32.5664C57.365 32.8246 57.0178 33.0738 56.6706 33.332C56.4459 33.5011 56.211 33.6703 55.9864 33.8305C55.7821 33.8483 55.486 33.8394 55.1694 33.7237C54.3524 33.421 53.8418 32.5397 54.0971 32.237C54.2605 32.0323 54.6894 32.1925 55.2817 32.1925C56.3029 32.2014 56.9871 31.7474 58.3453 30.8928C59.3052 30.2786 60.4081 29.5931 61.9502 28.6406Z" fill="#9B9797"/>
<path d="M71.1001 36.6969C68.7411 39.5366 66.9949 42.7948 64.013 45.2161C63.87 45.3318 64.0845 45.5188 64.2274 45.4031C67.2297 42.9639 68.9862 39.688 71.3656 36.8304C71.4881 36.6969 71.2226 36.5634 71.1001 36.6969Z" fill="black"/>
<path d="M62.3179 52.124C66.3618 51.8925 69.262 48.9371 71.6925 46.4267C71.815 46.2932 71.6006 46.1063 71.478 46.2398C69.119 48.6967 66.2597 51.6344 62.3281 51.8658C62.1238 51.8658 62.1238 52.1329 62.3179 52.124Z" fill="black"/>
<path d="M60.398 27.0473C60.4184 27.7505 60.9494 28.3559 61.7255 28.5517C61.9195 28.5962 62.0012 28.338 61.8072 28.2935C61.1639 28.1333 60.7247 27.6259 60.7043 27.0473C60.6941 26.8781 60.3877 26.8781 60.398 27.0473Z" fill="black"/>
<path d="M60.7146 26.967C60.8167 26.1925 62.3995 26.7533 62.8284 26.9492C63.2471 27.1361 63.6658 27.3231 63.7577 27.7682C63.8292 28.1064 63.7067 28.4625 63.6046 28.7919C63.5535 28.961 63.8496 29.0322 63.9007 28.8631C64.0437 28.418 64.1969 27.9106 63.9824 27.4744C63.7782 27.0293 63.2165 26.8245 62.757 26.6287C62.2872 26.4329 61.7766 26.2904 61.2456 26.3438C61.0311 26.3705 60.7554 26.4151 60.5818 26.5397C60.398 26.6643 60.4388 26.7533 60.4082 26.9759C60.3878 27.1361 60.6941 27.1361 60.7146 26.967Z" fill="black"/>
<path d="M63.5024 28.7385C63.4718 29.4151 63.6454 30.0738 63.4615 30.7504C63.2879 31.3735 62.9407 31.9521 62.5935 32.513C62.5016 32.6643 62.7671 32.7978 62.859 32.6465C63.2165 32.059 63.5739 31.4625 63.7577 30.8216C63.9517 30.1272 63.7781 29.4418 63.8088 28.7385C63.819 28.5605 63.5126 28.5605 63.5024 28.7385Z" fill="black"/>
<path d="M62.5935 32.5219C62.3586 37.2132 63.9007 41.8067 63.6556 46.498C63.6454 46.6672 63.9517 46.6672 63.9619 46.498C64.207 41.8067 62.665 37.2132 62.8999 32.5219C62.9101 32.3527 62.6037 32.3527 62.5935 32.5219Z" fill="black"/>
<path d="M57.5795 32.6197C57.8859 32.9936 58.2127 33.3497 58.5803 33.6791C58.7131 33.8037 58.9275 33.6167 58.7948 33.4921C58.4476 33.1716 58.131 32.8423 57.845 32.4862C57.7225 32.3438 57.457 32.4773 57.5795 32.6197Z" fill="black"/>
<path d="M58.7538 33.6079C58.1717 36.501 57.8858 39.4387 57.896 42.3763C57.9062 43.8363 57.9879 45.3051 58.1513 46.7561C58.2841 47.9935 58.4475 49.2932 59.1929 50.3792C59.8669 51.3674 61.0515 52.1151 62.3995 52.0884C62.5935 52.0795 62.5935 51.8125 62.3995 51.8214C60.5103 51.8659 59.2951 50.397 58.8559 48.9549C58.3658 47.3704 58.3249 45.6434 58.2534 44.0143C58.1003 40.5603 58.376 37.0886 59.0602 33.688C59.0806 33.51 58.7845 33.4387 58.7538 33.6079Z" fill="black"/>
<path d="M56.8237 29.611C55.8638 30.3143 54.9345 31.0531 54.0563 31.8276C53.9133 31.9522 54.138 32.1392 54.2707 32.0145C55.1592 31.2401 56.0783 30.5012 57.0382 29.7979C57.1914 29.6911 56.9769 29.5042 56.8237 29.611Z" fill="black"/>
<path d="M53.9644 32.0678C53.8112 33.1004 54.7099 33.9728 55.9047 33.9639C56.0987 33.9639 56.0987 33.6968 55.9047 33.6968C54.8733 33.7057 54.138 32.9491 54.2708 32.0678C54.3014 31.8986 53.9951 31.8986 53.9644 32.0678Z" fill="black"/>
<path d="M54.2504 32.0056C55.3226 32.0323 56.0681 32.8691 55.8434 33.7771C55.8026 33.9462 56.0987 34.0174 56.1396 33.8483C56.4153 32.7534 55.5371 31.7741 54.2504 31.7385C54.0564 31.7385 54.0564 32.0056 54.2504 32.0056Z" fill="black"/>
<path d="M56.2621 33.8037C57.4263 32.8779 58.6109 31.961 59.7444 31.0085C60.2653 30.5723 60.7656 30.1272 61.2354 29.6465C61.4907 29.3883 62.1341 28.8809 62.1443 28.5248C62.1443 28.4803 62.1136 28.4269 62.0728 28.4091C62.0524 28.4002 62.0319 28.3913 62.0217 28.3913C61.9604 28.3646 61.8788 28.3646 61.8379 28.4091C61.8277 28.418 61.8175 28.4269 61.8073 28.4447C61.6847 28.5782 61.8992 28.7652 62.0217 28.6316C62.0319 28.6227 62.0421 28.6138 62.0524 28.596C61.9911 28.6049 61.9298 28.6138 61.8685 28.6138C61.8481 28.5337 61.8175 28.5337 61.7766 28.6227C61.7256 28.685 61.6745 28.7474 61.6132 28.8097C61.4907 28.9432 61.3784 29.0767 61.2456 29.2103C61.0414 29.4328 60.8167 29.6465 60.6023 29.8601C60.1529 30.2874 59.6832 30.688 59.2032 31.0797C58.1616 31.9343 57.0995 32.7622 56.0477 33.6078C55.8945 33.7325 56.1192 33.9194 56.2621 33.8037Z" fill="black"/>
<path d="M56.3949 30.1095C56.4664 29.6822 56.5379 29.2549 56.6093 28.8276C56.6604 28.5072 56.7013 28.1511 56.9055 27.8662C57.3752 27.2075 58.039 27.6793 58.3964 28.1244C58.5496 28.3113 58.6926 28.5161 58.8458 28.703C58.9275 28.8098 59.3257 29.1926 59.2747 29.3261C59.3257 29.2905 59.3768 29.2638 59.4176 29.2282C59.3972 29.2282 59.387 29.2282 59.3666 29.2282C59.1726 29.2193 59.1726 29.4864 59.3666 29.4953C59.387 29.4953 59.3972 29.4953 59.4176 29.4953C59.4891 29.4953 59.5504 29.4508 59.5606 29.3974C59.6321 29.1748 59.4585 29.0413 59.3257 28.8632C59.0704 28.5339 58.8253 28.1956 58.5598 27.8751C58.2841 27.5457 57.9267 27.2253 57.4161 27.2698C56.9259 27.3143 56.6298 27.6437 56.4766 28.0265C56.2213 28.6585 56.2009 29.3796 56.0885 30.0383C56.0681 30.2074 56.3643 30.2787 56.3949 30.1095Z" fill="black"/>
<path d="M56.8749 29.1035C57.1506 29.5753 57.6102 30.056 58.2637 30.0916C58.805 30.1272 59.3156 29.8602 59.4585 29.3973C59.5096 29.2281 59.2134 29.1569 59.1624 29.3261C59.0296 29.7534 58.4884 29.9136 58.0391 29.7801C57.6102 29.6465 57.3344 29.3172 57.1404 28.9789C57.0485 28.8186 56.783 28.9522 56.8749 29.1035Z" fill="black"/>
<path d="M57.2526 27.3675C57.3037 26.9313 57.8756 26.8156 58.2636 26.9313C58.6721 27.047 58.9887 27.3675 59.2746 27.6257C59.4993 27.8304 59.9384 28.1153 59.9997 28.4001C60.0814 28.7829 59.5299 29.0411 59.1623 29.139C58.9785 29.1835 59.05 29.4417 59.244 29.3972C59.6933 29.2814 60.3469 28.9343 60.4184 28.4714C60.449 28.2844 60.3163 28.1865 60.1733 28.053C59.8873 27.7859 59.6116 27.5277 59.3155 27.2696C58.9172 26.9135 58.4066 26.5307 57.7939 26.6197C57.3343 26.6821 56.9973 26.9491 56.9463 27.3586C56.9259 27.5366 57.2322 27.5366 57.2526 27.3675Z" fill="black"/>
<path d="M57.8041 26.7088C57.947 26.5664 58.0185 26.3794 58.1513 26.237C58.4781 25.8809 58.9887 26.2103 59.3257 26.424C59.9792 26.8245 60.6737 27.5545 60.0814 28.2489C59.969 28.3913 60.2345 28.5248 60.3469 28.3824C60.98 27.6346 60.3571 26.7711 59.632 26.2904C59.295 26.0679 58.7844 25.6673 58.3249 25.783C57.9164 25.8809 57.8449 26.2904 57.5896 26.5308C57.4569 26.6465 57.6713 26.8334 57.8041 26.7088Z" fill="black"/>
<path d="M58.8355 25.8988C59.1929 25.516 59.6627 25.1154 60.2141 25.516C60.5818 25.7742 60.8166 26.1392 60.9494 26.5219C61.0107 26.6822 61.2966 26.6199 61.2455 26.4507C61.0719 25.9344 60.6737 25.338 60.0814 25.1243C59.4789 24.9107 58.9785 25.3291 58.6211 25.7119C58.4985 25.8365 58.713 26.0323 58.8355 25.8988Z" fill="black"/>
<path d="M61.0923 25.9343C61.7255 25.4625 62.3586 24.9907 62.9918 24.5278C63.1449 24.4121 62.9203 24.2251 62.7773 24.3409C62.1442 24.8127 61.511 25.2845 60.8779 25.7474C60.7247 25.8631 60.9494 26.05 61.0923 25.9343Z" fill="black"/>
<path d="M63.3493 27.0738C63.9518 26.691 64.5338 26.2815 65.0751 25.8364C65.218 25.7207 65.0036 25.5337 64.8606 25.6495C64.3296 26.0767 63.7781 26.4773 63.1961 26.8423C63.0327 26.9402 63.1859 27.1717 63.3493 27.0738Z" fill="black"/>
<path d="M67.9344 26.4062C71.3409 26.4062 74.1024 23.9989 74.1024 21.0294C74.1024 18.0599 71.3409 15.6526 67.9344 15.6526C64.5279 15.6526 61.7664 18.0599 61.7664 21.0294C61.7664 23.9989 64.5279 26.4062 67.9344 26.4062Z" stroke="black" stroke-width="3" stroke-miterlimit="10"/>
<path d="M64.1968 21.6882C66.4638 20.4242 68.782 19.2313 71.1511 18.1096C71.3247 18.0295 71.1716 17.7981 70.998 17.8782C68.6288 18.9909 66.3107 20.1838 64.0436 21.4568C63.8802 21.5547 64.0334 21.7862 64.1968 21.6882Z" fill="black"/>
<path d="M64.4522 24.0205C66.321 22.8276 68.2102 21.6793 70.1403 20.5576C70.3037 20.4597 70.1505 20.2282 69.9871 20.3261C68.0672 21.4478 66.1678 22.6051 64.299 23.789C64.1356 23.887 64.2888 24.1184 64.4522 24.0205Z" fill="black"/>
</g>
<defs>
<clipPath id="clip0_0_199">
<rect width="124" height="98" fill="white"/>
</clipPath>
</defs>
</svg>
